<svg width="200" height="54" viewBox="0 0 200 54" fill="none" xmlns="http://www.w3.org/2000/svg">
<rect x="1" y="1" width="198" height="52" rx="26" fill="white"/>
<rect x="1" y="1" width="198" height="52" rx="26" stroke="url(#paint0_linear_391_945)" stroke-width="2"/>
<path d="M37.244 19.474C38.42 19.474 39.434 19.6 40.286 19.852C41.15 20.092 41.81 20.44 42.266 20.896C42.734 21.352 42.968 21.91 42.968 22.57C42.968 23.206 42.734 23.758 42.266 24.226C41.81 24.682 41.15 25.03 40.286 25.27C39.434 25.51 38.42 25.63 37.244 25.63C36.08 25.63 35.066 25.51 34.202 25.27C33.35 25.03 32.69 24.682 32.222 24.226C31.754 23.758 31.52 23.206 31.52 22.57C31.52 21.91 31.754 21.352 32.222 20.896C32.69 20.44 33.35 20.092 34.202 19.852C35.066 19.6 36.08 19.474 37.244 19.474ZM37.244 20.662C36.392 20.662 35.648 20.74 35.012 20.896C34.388 21.04 33.902 21.256 33.554 21.544C33.218 21.82 33.05 22.162 33.05 22.57C33.05 22.954 33.218 23.29 33.554 23.578C33.902 23.854 34.388 24.07 35.012 24.226C35.648 24.37 36.392 24.442 37.244 24.442C38.108 24.442 38.852 24.37 39.476 24.226C40.112 24.07 40.598 23.854 40.934 23.578C41.27 23.29 41.438 22.954 41.438 22.57C41.438 22.162 41.27 21.82 40.934 21.544C40.598 21.256 40.112 21.04 39.476 20.896C38.852 20.74 38.108 20.662 37.244 20.662ZM31.7 29.824H42.806V35.188H31.7V29.824ZM41.348 31.03H33.158V33.964H41.348V31.03ZM29.9 27.016H44.606V28.24H29.9V27.016ZM53.8746 21.508H58.8246V22.732H53.8746V21.508ZM53.8746 25.162H58.8246V26.386H53.8746V25.162ZM48.9786 29.608H59.8506V35.404H58.3566V30.814H48.9786V29.608ZM58.3566 19.114H59.8506V28.708H58.3566V19.114ZM50.9046 20.032C51.6966 20.032 52.4046 20.2 53.0286 20.536C53.6646 20.86 54.1626 21.322 54.5226 21.922C54.8946 22.51 55.0806 23.182 55.0806 23.938C55.0806 24.706 54.8946 25.384 54.5226 25.972C54.1626 26.56 53.6646 27.022 53.0286 27.358C52.4046 27.694 51.6966 27.862 50.9046 27.862C50.1006 27.862 49.3806 27.694 48.7446 27.358C48.1206 27.022 47.6226 26.56 47.2506 25.972C46.8906 25.384 46.7106 24.706 46.7106 23.938C46.7106 23.182 46.8906 22.51 47.2506 21.922C47.6226 21.322 48.1206 20.86 48.7446 20.536C49.3806 20.2 50.1006 20.032 50.9046 20.032ZM50.9046 21.31C50.3766 21.31 49.9026 21.424 49.4826 21.652C49.0626 21.88 48.7326 22.192 48.4926 22.588C48.2526 22.984 48.1326 23.434 48.1326 23.938C48.1326 24.454 48.2526 24.916 48.4926 25.324C48.7326 25.72 49.0626 26.032 49.4826 26.26C49.9026 26.476 50.3766 26.584 50.9046 26.584C51.4206 26.584 51.8886 26.476 52.3086 26.26C52.7286 26.032 53.0586 25.72 53.2986 25.324C53.5386 24.916 53.6586 24.454 53.6586 23.938C53.6586 23.434 53.5386 22.984 53.2986 22.588C53.0586 22.192 52.7286 21.88 52.3086 21.652C51.8886 21.424 51.4206 21.31 50.9046 21.31ZM75.4012 19.114H76.8232V35.404H75.4012V19.114ZM72.6472 25.648H75.7792V26.872H72.6472V25.648ZM71.7112 19.474H73.0972V34.558H71.7112V19.474ZM63.5932 30.13H64.6552C65.4592 30.13 66.1852 30.124 66.8332 30.112C67.4932 30.088 68.1172 30.04 68.7052 29.968C69.3052 29.896 69.9172 29.794 70.5412 29.662L70.6852 30.904C70.0372 31.036 69.4072 31.138 68.7952 31.21C68.1952 31.282 67.5592 31.33 66.8872 31.354C66.2272 31.378 65.4832 31.39 64.6552 31.39H63.5932V30.13ZM63.5932 21.094H69.6412V22.318H65.0872V30.706H63.5932V21.094ZM84.0226 27.718H98.7826V28.924H84.0226V27.718ZM90.7546 28.33H92.2486V32.074H90.7546V28.33ZM85.8946 33.82H97.1446V35.044H85.8946V33.82ZM85.8946 30.616H87.3706V34.27H85.8946V30.616ZM85.9846 19.636H87.4606V21.706H95.3446V19.636H96.8206V26.152H85.9846V19.636ZM87.4606 22.858V24.946H95.3446V22.858H87.4606ZM108.951 22.516H112.803V23.758H108.951V22.516ZM104.667 19.942H105.891V21.652C105.891 22.684 105.705 23.65 105.333 24.55C104.961 25.438 104.439 26.218 103.767 26.89C103.107 27.55 102.321 28.054 101.409 28.402L100.617 27.196C101.445 26.908 102.159 26.488 102.759 25.936C103.371 25.372 103.839 24.724 104.163 23.992C104.499 23.248 104.667 22.468 104.667 21.652V19.942ZM104.937 19.942H106.143V21.724C106.143 22.276 106.239 22.816 106.431 23.344C106.623 23.872 106.893 24.364 107.241 24.82C107.589 25.264 108.003 25.666 108.483 26.026C108.975 26.374 109.515 26.65 110.103 26.854L109.311 28.042C108.435 27.706 107.667 27.226 107.007 26.602C106.347 25.966 105.837 25.234 105.477 24.406C105.117 23.566 104.937 22.672 104.937 21.724V19.942ZM103.119 29.644H113.991V35.404H112.497V30.85H103.119V29.644ZM112.497 19.114H113.991V28.744H112.497V19.114ZM128.192 19.114H129.668V35.404H128.192V19.114ZM129.326 25.81H132.332V27.07H129.326V25.81ZM117.068 21.724H126.662V22.948H117.068V21.724ZM121.946 24.28C122.714 24.28 123.392 24.442 123.98 24.766C124.58 25.09 125.048 25.534 125.384 26.098C125.732 26.65 125.906 27.292 125.906 28.024C125.906 28.756 125.732 29.404 125.384 29.968C125.048 30.532 124.58 30.976 123.98 31.3C123.392 31.612 122.714 31.768 121.946 31.768C121.178 31.768 120.494 31.612 119.894 31.3C119.306 30.976 118.838 30.532 118.49 29.968C118.142 29.404 117.968 28.756 117.968 28.024C117.968 27.292 118.142 26.65 118.49 26.098C118.838 25.534 119.306 25.09 119.894 24.766C120.494 24.442 121.178 24.28 121.946 24.28ZM121.946 25.522C121.454 25.522 121.016 25.63 120.632 25.846C120.248 26.062 119.942 26.356 119.714 26.728C119.498 27.1 119.39 27.532 119.39 28.024C119.39 28.516 119.498 28.954 119.714 29.338C119.942 29.71 120.248 30.004 120.632 30.22C121.016 30.424 121.454 30.526 121.946 30.526C122.426 30.526 122.858 30.424 123.242 30.22C123.626 30.004 123.926 29.71 124.142 29.338C124.37 28.954 124.484 28.516 124.484 28.024C124.484 27.532 124.37 27.1 124.142 26.728C123.926 26.356 123.626 26.062 123.242 25.846C122.858 25.63 122.426 25.522 121.946 25.522ZM121.172 19.312H122.666V22.264H121.172V19.312ZM145.578 19.114H147.072V35.404H145.578V19.114ZM140.808 20.878H142.284C142.284 22.054 142.14 23.188 141.852 24.28C141.576 25.372 141.138 26.41 140.538 27.394C139.938 28.366 139.158 29.272 138.198 30.112C137.238 30.952 136.074 31.702 134.706 32.362L133.914 31.156C135.486 30.4 136.782 29.518 137.802 28.51C138.822 27.502 139.578 26.38 140.07 25.144C140.562 23.896 140.808 22.552 140.808 21.112V20.878ZM134.67 20.878H141.438V22.084H134.67V20.878Z" fill="#666666"/>
<path d="M162 27L178 27" stroke="#FF7C98" stroke-width="3" stroke-linecap="round" stroke-linejoin="round"/>
<path d="M171 20L178 27L171 34" stroke="#FF7C98" stroke-width="3" stroke-linecap="round" stroke-linejoin="round"/>
<defs>
<linearGradient id="paint0_linear_391_945" x1="0" y1="27" x2="200" y2="27" gradientUnits="userSpaceOnUse">
<stop stop-color="#FF7C98"/>
<stop offset="1" stop-color="#98B5FF"/>
</linearGradient>
</defs>
</svg>
