<svg width="200" height="55" viewBox="0 0 200 55" fill="none" xmlns="http://www.w3.org/2000/svg">
<rect y="0.780029" width="200" height="54" rx="27" fill="#CCCCCC"/>
<path d="M48.1565 19.272C51.6665 19.272 53.8805 20.424 53.8805 22.35C53.8805 24.276 51.6665 25.41 48.1565 25.41C44.6285 25.41 42.4325 24.276 42.4325 22.35C42.4325 20.424 44.6285 19.272 48.1565 19.272ZM48.1565 20.46C45.5645 20.46 43.9625 21.144 43.9625 22.35C43.9625 23.538 45.5645 24.24 48.1565 24.24C50.7305 24.24 52.3505 23.538 52.3505 22.35C52.3505 21.144 50.7305 20.46 48.1565 20.46ZM42.5945 29.604H53.7005V34.968H42.5945V29.604ZM52.2425 30.81H44.0705V33.762H52.2425V30.81ZM40.7945 26.814H55.5005V28.02H40.7945V26.814ZM64.7691 21.306H69.7371V22.53H64.7691V21.306ZM64.7691 24.942H69.7371V26.184H64.7691V24.942ZM59.8911 29.406H70.7451V35.184H69.2511V30.612H59.8911V29.406ZM69.2511 18.912H70.7451V28.506H69.2511V18.912ZM61.7991 19.812C64.1931 19.812 65.9931 21.432 65.9931 23.736C65.9931 26.04 64.1931 27.642 61.7991 27.642C59.3871 27.642 57.6051 26.04 57.6051 23.736C57.6051 21.432 59.3871 19.812 61.7991 19.812ZM61.7991 21.09C60.2151 21.09 59.0451 22.188 59.0451 23.736C59.0451 25.284 60.2151 26.364 61.7991 26.364C63.3831 26.364 64.5711 25.284 64.5711 23.736C64.5711 22.188 63.3831 21.09 61.7991 21.09ZM86.2957 18.912H87.7357V35.184H86.2957V18.912ZM83.5417 25.428H86.6737V26.67H83.5417V25.428ZM82.6057 19.272H84.0097V34.356H82.6057V19.272ZM74.5057 29.928H75.5677C77.9437 29.928 79.5637 29.838 81.4537 29.442L81.5977 30.684C79.6537 31.098 78.0157 31.17 75.5677 31.17H74.5057V29.928ZM74.5057 20.892H80.5537V22.116H75.9817V30.486H74.5057V20.892ZM94.9352 27.498H109.677V28.722H94.9352V27.498ZM101.667 28.11H103.161V31.854H101.667V28.11ZM96.8072 33.6H108.039V34.824H96.8072V33.6ZM96.8072 30.414H98.2832V34.068H96.8072V30.414ZM96.8972 19.416H98.3732V21.486H106.239V19.416H107.733V25.932H96.8972V19.416ZM98.3732 22.656V24.726H106.239V22.656H98.3732ZM119.864 22.314H123.716V23.556H119.864V22.314ZM115.562 19.74H116.786V21.432C116.786 24.564 115.04 27.138 112.304 28.182L111.53 26.994C113.978 26.094 115.562 23.916 115.562 21.432V19.74ZM115.832 19.74H117.038V21.504C117.038 23.736 118.658 25.824 120.998 26.652L120.206 27.822C117.596 26.832 115.832 24.366 115.832 21.504V19.74ZM114.032 29.424H124.886V35.184H123.392V30.63H114.032V29.424ZM123.392 18.912H124.886V28.524H123.392V18.912ZM139.086 18.912H140.58V35.184H139.086V18.912ZM140.22 25.59H143.244V26.85H140.22V25.59ZM127.98 21.504H137.574V22.728H127.98V21.504ZM132.84 24.078C135.144 24.078 136.8 25.626 136.8 27.822C136.8 30.018 135.144 31.566 132.84 31.566C130.554 31.566 128.88 30.018 128.88 27.822C128.88 25.626 130.554 24.078 132.84 24.078ZM132.84 25.32C131.364 25.32 130.302 26.346 130.302 27.822C130.302 29.28 131.364 30.324 132.84 30.324C134.316 30.324 135.378 29.28 135.378 27.822C135.378 26.346 134.316 25.32 132.84 25.32ZM132.066 19.11H133.56V22.062H132.066V19.11ZM156.473 18.912H157.967V35.184H156.473V18.912ZM151.703 20.658H153.179C153.179 25.374 151.055 29.496 145.619 32.16L144.827 30.954C149.525 28.686 151.703 25.23 151.703 20.91V20.658ZM145.565 20.658H152.351V21.882H145.565V20.658Z" fill="white"/>
</svg>
