<svg width="174" height="174" viewBox="0 0 174 174" fill="none" xmlns="http://www.w3.org/2000/svg">
<g filter="url(#filter0_d_382_126)">
<circle cx="87.0449" cy="83.0449" r="78.0449" fill="white"/>
</g>
<path d="M86.3497 42.0416C85.905 42.1134 85.4656 42.2148 85.0343 42.3451C82.7519 42.8592 80.7181 44.1483 79.2791 45.9931C77.8401 47.8379 77.085 50.1244 77.1421 52.4634V72.6998C77.1421 75.3833 78.2082 77.9569 80.1057 79.8545C82.0032 81.752 84.5768 82.818 87.2604 82.818C89.9439 82.818 92.5175 81.752 94.415 79.8545C96.3126 77.9569 97.3786 75.3833 97.3786 72.6998V52.4634C97.4275 51.0291 97.1708 49.6008 96.6255 48.2734C96.0802 46.9459 95.2587 45.7497 94.2156 44.764C93.1726 43.7784 91.9318 43.0259 90.5756 42.5565C89.2194 42.0871 87.7789 41.9116 86.3497 42.0416ZM60.4471 62.5816C59.3999 62.9336 58.4968 63.6187 57.8756 64.5322C57.2544 65.4457 56.9493 66.5375 57.0069 67.6407V72.6998C57.0069 87.6748 68.0357 99.9178 82.3024 102.447V113.173H77.2433C71.6783 113.173 67.1251 117.726 67.1251 123.291H107.699C107.699 117.726 103.146 113.173 97.5809 113.173H92.5218V102.447C106.789 100.019 117.817 87.6748 117.817 72.6998V67.6407C117.817 66.2989 117.284 65.0121 116.336 64.0634C115.387 63.1146 114.1 62.5816 112.758 62.5816C111.417 62.5816 110.13 63.1146 109.181 64.0634C108.232 65.0121 107.699 66.2989 107.699 67.6407V72.6998C107.699 83.931 98.6939 92.9362 87.4627 92.9362C76.2315 92.9362 67.2263 83.931 67.2263 72.6998V67.6407C67.2385 66.8922 67.0845 66.1504 66.7754 65.4687C66.4663 64.787 66.0097 64.1823 65.4387 63.6984C64.8676 63.2144 64.1963 62.8632 63.4731 62.6701C62.7499 62.477 61.9928 62.4467 61.2565 62.5816C61.0544 62.5694 60.8516 62.5694 60.6494 62.5816H60.4471Z" fill="url(#paint0_linear_382_126)"/>
<defs>
<filter id="filter0_d_382_126" x="0.675214" y="0.837607" width="172.739" height="172.739" filterUnits="userSpaceOnUse" color-interpolation-filters="sRGB">
<feFlood flood-opacity="0" result="BackgroundImageFix"/>
<feColorMatrix in="SourceAlpha" type="matrix" values="0 0 0 0 0 0 0 0 0 0 0 0 0 0 0 0 0 0 127 0" result="hardAlpha"/>
<feOffset dy="4.16239"/>
<feGaussianBlur stdDeviation="4.16239"/>
<feComposite in2="hardAlpha" operator="out"/>
<feColorMatrix type="matrix" values="0 0 0 0 0 0 0 0 0 0 0 0 0 0 0 0 0 0 0.2 0"/>
<feBlend mode="normal" in2="BackgroundImageFix" result="effect1_dropShadow_382_126"/>
<feBlend mode="normal" in="SourceGraphic" in2="effect1_dropShadow_382_126" result="shape"/>
</filter>
<linearGradient id="paint0_linear_382_126" x1="87.4087" y1="42" x2="87.4087" y2="123.291" gradientUnits="userSpaceOnUse">
<stop stop-color="#98B5FF"/>
<stop offset="1" stop-color="#FF7C98"/>
</linearGradient>
</defs>
</svg>
