<svg width="631" height="60" viewBox="0 0 631 60" fill="none" xmlns="http://www.w3.org/2000/svg">
<rect width="631" height="60" rx="10" fill="url(#paint0_linear_255_504)"/>
<path d="M220.342 27.234H223.276V29.196H220.342V27.234ZM218.56 20.916H220.972V37.584H218.56V20.916ZM208.408 22.518H210.802V32.868H208.408V22.518ZM208.408 31.536H209.848C212.224 31.536 214.798 31.374 217.48 30.834L217.732 32.796C214.978 33.372 212.296 33.516 209.848 33.516H208.408V31.536ZM231.122 27.072H233.858V28.998H231.122V27.072ZM236.504 20.934H238.79V37.602H236.504V20.934ZM233.102 21.186H235.352V36.846H233.102V21.186ZM228.206 22.104C230.42 22.104 231.842 24.39 231.842 28.152C231.842 31.932 230.42 34.218 228.206 34.218C226.01 34.218 224.606 31.932 224.606 28.152C224.606 24.39 226.01 22.104 228.206 22.104ZM228.206 24.354C227.306 24.354 226.784 25.614 226.784 28.152C226.784 30.708 227.306 31.95 228.206 31.95C229.142 31.95 229.664 30.708 229.664 28.152C229.664 25.614 229.142 24.354 228.206 24.354ZM253.099 20.934H255.385V37.602H253.099V20.934ZM246.493 27.324H250.057V29.214H246.493V27.324ZM249.589 21.294H251.821V36.864H249.589V21.294ZM245.953 22.896H248.257C248.257 27.648 246.835 31.428 242.155 34.146L240.805 32.472C244.603 30.186 245.953 27.414 245.953 23.382V22.896ZM241.741 22.896H246.709V24.804H241.741V22.896ZM262.548 21.996H270.486V29.34H262.548V21.996ZM268.128 23.886H264.906V27.45H268.128V23.886ZM272.79 20.934H275.184V30.258H272.79V20.934ZM274.518 24.552H277.398V26.496H274.518V24.552ZM268.542 31.932H270.558V32.328C270.558 34.92 268.416 37.026 264.384 37.548L263.52 35.73C266.994 35.316 268.542 33.768 268.542 32.328V31.932ZM269.064 31.932H271.098V32.328C271.098 33.714 272.682 35.316 276.102 35.766L275.256 37.584C271.224 37.062 269.064 34.848 269.064 32.328V31.932ZM264.222 31.05H275.4V32.922H264.222V31.05ZM280.492 25.434H292.048V27.324H280.492V25.434ZM278.62 29.052H293.722V30.96H278.62V29.052ZM280.492 21.528H282.868V26.37H280.492V21.528ZM280.33 35.334H292.138V37.242H280.33V35.334ZM280.33 32.292H282.724V35.838H280.33V32.292ZM301.353 28.098H313.161V30.006H301.353V28.098ZM299.679 33.804H314.763V35.73H299.679V33.804ZM306.015 29.232H308.409V34.344H306.015V29.232ZM301.353 22.194H303.765V28.926H301.353V22.194ZM316.67 31.95H317.84C319.82 31.95 321.566 31.914 323.618 31.59L323.798 33.516C321.674 33.876 319.874 33.93 317.84 33.93H316.67V31.95ZM316.652 22.554H322.97V28.998H318.992V32.67H316.67V27.108H320.648V24.462H316.652V22.554ZM328.262 20.934H330.53V37.602H328.262V20.934ZM326.03 27.234H328.802V29.142H326.03V27.234ZM324.536 21.222H326.75V36.81H324.536V21.222ZM337.279 27.396H352.363V29.286H337.279V27.396ZM339.133 24.624H350.581V26.496H339.133V24.624ZM339.133 21.24H350.437V23.148H341.509V26.244H339.133V21.24ZM338.989 30.222H350.509V34.632H341.365V36.072H339.007V32.94H348.151V32.022H338.989V30.222ZM339.007 35.64H350.941V37.476H339.007V35.64ZM361.362 21.762C364.872 21.762 367.59 23.688 367.59 26.586C367.59 29.502 364.872 31.41 361.362 31.41C357.852 31.41 355.134 29.502 355.134 26.586C355.134 23.688 357.852 21.762 361.362 21.762ZM361.362 23.706C359.094 23.706 357.474 24.786 357.474 26.586C357.474 28.368 359.094 29.448 361.362 29.448C363.63 29.448 365.25 28.368 365.25 26.586C365.25 24.786 363.63 23.706 361.362 23.706ZM353.838 33.642H368.922V35.604H353.838V33.642ZM381.934 20.916H384.328V37.638H381.934V20.916ZM379.324 26.928H382.42V28.854H379.324V26.928ZM370.954 31.806H372.322C375.022 31.806 377.164 31.752 379.576 31.338L379.792 33.282C377.326 33.696 375.094 33.786 372.322 33.786H370.954V31.806ZM370.918 22.338H378.424V28.602H373.33V32.4H370.954V26.712H376.066V24.246H370.918V22.338ZM402.075 20.916H404.487V37.584H402.075V20.916ZM403.857 27.288H406.791V29.25H403.857V27.288ZM397.701 22.644H400.041C400.041 27.648 398.133 31.932 392.589 34.722L391.257 32.904C395.631 30.636 397.701 27.576 397.701 23.058V22.644ZM392.175 22.644H398.925V24.57H392.175V22.644ZM419.462 20.934H421.874V37.602H419.462V20.934ZM414.548 22.662H416.924C416.924 27.756 415.196 31.932 409.274 34.794L408.032 32.886C412.82 30.582 414.548 27.558 414.548 23.094V22.662ZM408.914 22.662H415.682V24.552H408.914V22.662Z" fill="white"/>
<defs>
<linearGradient id="paint0_linear_255_504" x1="143.728" y1="213.75" x2="510.394" y2="-129.015" gradientUnits="userSpaceOnUse">
<stop stop-color="#FF7C98"/>
<stop offset="1" stop-color="#98B5FF"/>
</linearGradient>
</defs>
</svg>
