<svg width="631" height="60" viewBox="0 0 631 60" fill="none" xmlns="http://www.w3.org/2000/svg">
<rect width="631" height="60" rx="10" fill="url(#paint0_linear_255_494)"/>
<path d="M231.462 29.234H234.396V31.196H231.462V29.234ZM229.68 22.916H232.092V39.584H229.68V22.916ZM219.528 24.518H221.922V34.868H219.528V24.518ZM219.528 33.536H220.968C223.344 33.536 225.918 33.374 228.6 32.834L228.852 34.796C226.098 35.372 223.416 35.516 220.968 35.516H219.528V33.536ZM242.243 29.072H244.979V30.998H242.243V29.072ZM247.625 22.934H249.911V39.602H247.625V22.934ZM244.223 23.186H246.473V38.846H244.223V23.186ZM239.327 24.104C241.541 24.104 242.963 26.39 242.963 30.152C242.963 33.932 241.541 36.218 239.327 36.218C237.131 36.218 235.727 33.932 235.727 30.152C235.727 26.39 237.131 24.104 239.327 24.104ZM239.327 26.354C238.427 26.354 237.905 27.614 237.905 30.152C237.905 32.708 238.427 33.95 239.327 33.95C240.263 33.95 240.785 32.708 240.785 30.152C240.785 27.614 240.263 26.354 239.327 26.354ZM264.219 22.934H266.505V39.602H264.219V22.934ZM257.613 29.324H261.177V31.214H257.613V29.324ZM260.709 23.294H262.941V38.864H260.709V23.294ZM257.073 24.896H259.377C259.377 29.648 257.955 33.428 253.275 36.146L251.925 34.472C255.723 32.186 257.073 29.414 257.073 25.382V24.896ZM252.861 24.896H257.829V26.804H252.861V24.896ZM273.668 23.996H281.606V31.34H273.668V23.996ZM279.248 25.886H276.026V29.45H279.248V25.886ZM283.91 22.934H286.304V32.258H283.91V22.934ZM285.638 26.552H288.518V28.496H285.638V26.552ZM279.662 33.932H281.678V34.328C281.678 36.92 279.536 39.026 275.504 39.548L274.64 37.73C278.114 37.316 279.662 35.768 279.662 34.328V33.932ZM280.184 33.932H282.218V34.328C282.218 35.714 283.802 37.316 287.222 37.766L286.376 39.584C282.344 39.062 280.184 36.848 280.184 34.328V33.932ZM275.342 33.05H286.52V34.922H275.342V33.05ZM291.613 27.434H303.169V29.324H291.613V27.434ZM289.741 31.052H304.843V32.96H289.741V31.052ZM291.613 23.528H293.989V28.37H291.613V23.528ZM291.451 37.334H303.259V39.242H291.451V37.334ZM291.451 34.292H293.845V37.838H291.451V34.292ZM312.474 30.098H324.282V32.006H312.474V30.098ZM310.8 35.804H325.884V37.73H310.8V35.804ZM317.136 31.232H319.53V36.344H317.136V31.232ZM312.474 24.194H314.886V30.926H312.474V24.194ZM327.79 33.95H328.96C330.94 33.95 332.686 33.914 334.738 33.59L334.918 35.516C332.794 35.876 330.994 35.93 328.96 35.93H327.79V33.95ZM327.772 24.554H334.09V30.998H330.112V34.67H327.79V29.108H331.768V26.462H327.772V24.554ZM339.382 22.934H341.65V39.602H339.382V22.934ZM337.15 29.234H339.922V31.142H337.15V29.234ZM335.656 23.222H337.87V38.81H335.656V23.222ZM354.717 33.608H357.093V39.62H354.717V33.608ZM348.399 32.906H363.465V34.85H348.399V32.906ZM354.699 25.922H356.805V26.318C356.805 29.108 354.393 31.538 349.983 32.06L349.155 30.188C352.917 29.756 354.699 27.866 354.699 26.318V25.922ZM355.005 25.922H357.111V26.318C357.111 27.83 358.911 29.756 362.655 30.188L361.809 32.06C357.417 31.556 355.005 29.036 355.005 26.318V25.922ZM349.749 24.842H362.097V26.732H349.749V24.842ZM354.717 22.97H357.093V25.49H354.717V22.97ZM368.684 26.192H370.628V26.84C370.628 29.882 369.152 32.6 365.984 33.59L364.832 31.718C367.532 30.872 368.684 28.856 368.684 26.84V26.192ZM369.116 26.192H371.078V26.84C371.078 28.712 372.248 30.638 374.948 31.448L373.796 33.32C370.646 32.384 369.116 29.756 369.116 26.84V26.192ZM365.408 24.896H374.354V26.768H365.408V24.896ZM368.684 23.06H371.078V25.598H368.684V23.06ZM373.832 27.776H377.702V29.738H373.832V27.776ZM376.496 22.952H378.89V35.282H376.496V22.952ZM367.892 37.406H379.268V39.314H367.892V37.406ZM367.892 34.256H370.286V38.666H367.892V34.256ZM392.227 22.934H394.621V32.654H392.227V22.934ZM393.955 26.714H396.835V28.676H393.955V26.714ZM381.985 23.906H384.361V26.012H387.619V23.906H389.995V31.844H381.985V23.906ZM384.361 27.848V29.972H387.619V27.848H384.361ZM383.785 33.392H394.711V35.282H386.179V38.864H383.785V33.392ZM383.785 37.514H395.035V39.404H383.785V37.514ZM409.541 22.934H411.953V39.602H409.541V22.934ZM404.627 24.662H407.003C407.003 29.756 405.275 33.932 399.353 36.794L398.111 34.886C402.899 32.582 404.627 29.558 404.627 25.094V24.662ZM398.993 24.662H405.761V26.552H398.993V24.662Z" fill="white"/>
<defs>
<linearGradient id="paint0_linear_255_494" x1="143.728" y1="213.75" x2="510.394" y2="-129.015" gradientUnits="userSpaceOnUse">
<stop stop-color="#FF7C98"/>
<stop offset="1" stop-color="#98B5FF"/>
</linearGradient>
</defs>
</svg>
