<svg width="200" height="54" viewBox="0 0 200 54" fill="none" xmlns="http://www.w3.org/2000/svg">
<rect width="200" height="54" rx="27" fill="url(#paint0_linear_255_462)"/>
<path d="M67.6304 22.704H78.6824V23.928H67.6304V22.704ZM67.6304 18.474H69.1064V23.208H67.6304V18.474ZM65.6504 26.124H80.3564V27.33H65.6504V26.124ZM72.2564 23.388H73.7324V26.664H72.2564V23.388ZM67.3604 28.986H78.5204V34.404H77.0264V30.192H67.3604V28.986ZM89.553 18.492C93.063 18.492 95.277 19.644 95.277 21.57C95.277 23.496 93.063 24.63 89.553 24.63C86.025 24.63 83.829 23.496 83.829 21.57C83.829 19.644 86.025 18.492 89.553 18.492ZM89.553 19.68C86.961 19.68 85.359 20.364 85.359 21.57C85.359 22.758 86.961 23.46 89.553 23.46C92.127 23.46 93.747 22.758 93.747 21.57C93.747 20.364 92.127 19.68 89.553 19.68ZM83.991 28.824H95.097V34.188H83.991V28.824ZM93.639 30.03H85.467V32.982H93.639V30.03ZM82.191 26.034H96.897V27.24H82.191V26.034ZM107.516 19.536H108.74V22.452C108.74 26.196 106.724 29.67 104.06 31.02L103.142 29.796C105.554 28.644 107.516 25.53 107.516 22.452V19.536ZM107.768 19.536H108.992V22.452C108.992 25.422 110.936 28.41 113.348 29.526L112.448 30.714C109.802 29.418 107.768 26.07 107.768 22.452V19.536ZM115.04 18.114H116.534V34.422H115.04V18.114ZM123.787 19.806H125.011V21.12C125.011 24.108 123.211 26.592 120.493 27.564L119.701 26.394C122.167 25.53 123.787 23.442 123.787 21.12V19.806ZM124.057 19.806H125.281V21.102C125.281 23.262 126.847 25.26 129.241 26.07L128.467 27.24C125.785 26.304 124.057 23.91 124.057 21.102V19.806ZM120.169 19.266H128.863V20.49H120.169V19.266ZM130.915 18.132H132.409V27.924H130.915V18.132ZM131.995 22.416H134.821V23.658H131.995V22.416ZM121.843 28.788H132.409V34.404H130.915V30.03H121.843V28.788Z" fill="white"/>
<defs>
<linearGradient id="paint0_linear_255_462" x1="36.5" y1="90.5" x2="163.5" y2="-36.5" gradientUnits="userSpaceOnUse">
<stop stop-color="#FF7C98"/>
<stop offset="1" stop-color="#98B5FF"/>
</linearGradient>
</defs>
</svg>
